<svg xmlns="http://www.w3.org/2000/svg" version="1.1" xmlns:xlink="http://www.w3.org/1999/xlink" xmlns:svgjs="http://svgjs.dev/svgjs" width="1440" height="560" preserveAspectRatio="none" viewBox="0 0 1440 560"><g mask="url(&quot;#SvgjsMask1008&quot;)" fill="none"><rect width="1440" height="560" x="0" y="0" fill="rgba(255, 236, 179, 1)"></rect><path d="M-89.93 403.91L-89.93 403.91" stroke="rgba(234, 162, 33, 0.26)" stroke-width="1.5"></path><path d="M-89.93 403.91L-57.21 520.49" stroke="rgba(234, 162, 33, 0.26)" stroke-width="1.5"></path><path d="M-89.93 403.91L67.99 348.49" stroke="rgba(234, 162, 33, 0.26)" stroke-width="1.5"></path><path d="M-89.93 403.91L109.47 553.31" stroke="rgba(234, 162, 33, 0.26)" stroke-width="1.5"></path><path d="M-57.21 520.49L-57.21 520.49" stroke="rgba(234, 162, 33, 0.26)" stroke-width="1.5"></path><path d="M-57.21 520.49L109.47 553.31" stroke="rgba(234, 162, 33, 0.26)" stroke-width="1.5"></path><path d="M-57.21 520.49L-65.17 690.45" stroke="rgba(234, 162, 33, 0.26)" stroke-width="1.5"></path><path d="M-65.17 690.45L-65.17 690.45" stroke="rgba(234, 162, 33, 0.26)" stroke-width="1.5"></path><path d="M-65.17 690.45L94.2 651.23" stroke="rgba(234, 162, 33, 0.26)" stroke-width="1.5"></path><path d="M-65.17 690.45L109.47 553.31" stroke="rgba(234, 162, 33, 0.26)" stroke-width="1.5"></path><path d="M-65.17 690.45L197.03 675.33" stroke="rgba(234, 162, 33, 0.26)" stroke-width="1.5"></path><path d="M-65.17 690.45L-89.93 403.91" stroke="rgba(234, 162, 33, 0.26)" stroke-width="1.5"></path><path d="M-65.17 690.45L218.79 521.84" stroke="rgba(234, 162, 33, 0.26)" stroke-width="1.5"></path><path d="M67.99 348.49L67.99 348.49" stroke="rgba(234, 162, 33, 0.26)" stroke-width="1.5"></path><path d="M67.99 348.49L109.47 553.31" stroke="rgba(234, 162, 33, 0.26)" stroke-width="1.5"></path><path d="M67.99 348.49L-57.21 520.49" stroke="rgba(234, 162, 33, 0.26)" stroke-width="1.5"></path><path d="M109.47 553.31L109.47 553.31" stroke="rgba(234, 162, 33, 0.26)" stroke-width="1.5"></path><path d="M109.47 553.31L94.2 651.23" stroke="rgba(234, 162, 33, 0.26)" stroke-width="1.5"></path><path d="M109.47 553.31L218.79 521.84" stroke="rgba(234, 162, 33, 0.26)" stroke-width="1.5"></path><path d="M109.47 553.31L197.03 675.33" stroke="rgba(234, 162, 33, 0.26)" stroke-width="1.5"></path><path d="M94.2 651.23L94.2 651.23" stroke="rgba(234, 162, 33, 0.26)" stroke-width="1.5"></path><path d="M94.2 651.23L197.03 675.33" stroke="rgba(234, 162, 33, 0.26)" stroke-width="1.5"></path><path d="M218.79 521.84L218.79 521.84" stroke="rgba(234, 162, 33, 0.26)" stroke-width="1.5"></path><path d="M218.79 521.84L349.46 531.56" stroke="rgba(234, 162, 33, 0.26)" stroke-width="1.5"></path><path d="M218.79 521.84L197.03 675.33" stroke="rgba(234, 162, 33, 0.26)" stroke-width="1.5"></path><path d="M218.79 521.84L94.2 651.23" stroke="rgba(234, 162, 33, 0.26)" stroke-width="1.5"></path><path d="M218.79 521.84L359.93 639.4" stroke="rgba(234, 162, 33, 0.26)" stroke-width="1.5"></path><path d="M197.03 675.33L197.03 675.33" stroke="rgba(234, 162, 33, 0.26)" stroke-width="1.5"></path><path d="M197.03 675.33L359.93 639.4" stroke="rgba(234, 162, 33, 0.26)" stroke-width="1.5"></path><path d="M392.2 348.21L392.2 348.21" stroke="rgba(234, 162, 33, 0.26)" stroke-width="1.5"></path><path d="M392.2 348.21L349.46 531.56" stroke="rgba(234, 162, 33, 0.26)" stroke-width="1.5"></path><path d="M392.2 348.21L218.79 521.84" stroke="rgba(234, 162, 33, 0.26)" stroke-width="1.5"></path><path d="M392.2 348.21L553.82 534.98" stroke="rgba(234, 162, 33, 0.26)" stroke-width="1.5"></path><path d="M349.46 531.56L349.46 531.56" stroke="rgba(234, 162, 33, 0.26)" stroke-width="1.5"></path><path d="M349.46 531.56L359.93 639.4" stroke="rgba(234, 162, 33, 0.26)" stroke-width="1.5"></path><path d="M359.93 639.4L359.93 639.4" stroke="rgba(234, 162, 33, 0.26)" stroke-width="1.5"></path><path d="M553.82 534.98L553.82 534.98" stroke="rgba(234, 162, 33, 0.26)" stroke-width="1.5"></path><path d="M553.82 534.98L559.76 662.45" stroke="rgba(234, 162, 33, 0.26)" stroke-width="1.5"></path><path d="M553.82 534.98L700.33 549.05" stroke="rgba(234, 162, 33, 0.26)" stroke-width="1.5"></path><path d="M553.82 534.98L349.46 531.56" stroke="rgba(234, 162, 33, 0.26)" stroke-width="1.5"></path><path d="M553.82 534.98L673.95 703.95" stroke="rgba(234, 162, 33, 0.26)" stroke-width="1.5"></path><path d="M559.76 662.45L559.76 662.45" stroke="rgba(234, 162, 33, 0.26)" stroke-width="1.5"></path><path d="M559.76 662.45L673.95 703.95" stroke="rgba(234, 162, 33, 0.26)" stroke-width="1.5"></path><path d="M658.15 246.58L658.15 246.58" stroke="rgba(234, 162, 33, 0.26)" stroke-width="1.5"></path><path d="M658.15 246.58L816.23 242.86" stroke="rgba(234, 162, 33, 0.26)" stroke-width="1.5"></path><path d="M658.15 246.58L835.47 358.02" stroke="rgba(234, 162, 33, 0.26)" stroke-width="1.5"></path><path d="M658.15 246.58L835.89 103.07" stroke="rgba(234, 162, 33, 0.26)" stroke-width="1.5"></path><path d="M658.15 246.58L788.29 487.61" stroke="rgba(234, 162, 33, 0.26)" stroke-width="1.5"></path><path d="M658.15 246.58L392.2 348.21" stroke="rgba(234, 162, 33, 0.26)" stroke-width="1.5"></path><path d="M700.33 549.05L700.33 549.05" stroke="rgba(234, 162, 33, 0.26)" stroke-width="1.5"></path><path d="M700.33 549.05L788.29 487.61" stroke="rgba(234, 162, 33, 0.26)" stroke-width="1.5"></path><path d="M673.95 703.95L673.95 703.95" stroke="rgba(234, 162, 33, 0.26)" stroke-width="1.5"></path><path d="M673.95 703.95L789.91 677.73" stroke="rgba(234, 162, 33, 0.26)" stroke-width="1.5"></path><path d="M673.95 703.95L700.33 549.05" stroke="rgba(234, 162, 33, 0.26)" stroke-width="1.5"></path><path d="M673.95 703.95L788.29 487.61" stroke="rgba(234, 162, 33, 0.26)" stroke-width="1.5"></path><path d="M673.95 703.95L947.79 656.07" stroke="rgba(234, 162, 33, 0.26)" stroke-width="1.5"></path><path d="M835.89 103.07L835.89 103.07" stroke="rgba(234, 162, 33, 0.26)" stroke-width="1.5"></path><path d="M835.89 103.07L953.75 87.39" stroke="rgba(234, 162, 33, 0.26)" stroke-width="1.5"></path><path d="M835.89 103.07L816.23 242.86" stroke="rgba(234, 162, 33, 0.26)" stroke-width="1.5"></path><path d="M816.23 242.86L816.23 242.86" stroke="rgba(234, 162, 33, 0.26)" stroke-width="1.5"></path><path d="M816.23 242.86L835.47 358.02" stroke="rgba(234, 162, 33, 0.26)" stroke-width="1.5"></path><path d="M835.47 358.02L835.47 358.02" stroke="rgba(234, 162, 33, 0.26)" stroke-width="1.5"></path><path d="M835.47 358.02L970.47 362.51" stroke="rgba(234, 162, 33, 0.26)" stroke-width="1.5"></path><path d="M788.29 487.61L788.29 487.61" stroke="rgba(234, 162, 33, 0.26)" stroke-width="1.5"></path><path d="M788.29 487.61L835.47 358.02" stroke="rgba(234, 162, 33, 0.26)" stroke-width="1.5"></path><path d="M788.29 487.61L789.91 677.73" stroke="rgba(234, 162, 33, 0.26)" stroke-width="1.5"></path><path d="M788.29 487.61L970.47 362.51" stroke="rgba(234, 162, 33, 0.26)" stroke-width="1.5"></path><path d="M788.29 487.61L947.79 656.07" stroke="rgba(234, 162, 33, 0.26)" stroke-width="1.5"></path><path d="M788.29 487.61L553.82 534.98" stroke="rgba(234, 162, 33, 0.26)" stroke-width="1.5"></path><path d="M789.91 677.73L789.91 677.73" stroke="rgba(234, 162, 33, 0.26)" stroke-width="1.5"></path><path d="M789.91 677.73L700.33 549.05" stroke="rgba(234, 162, 33, 0.26)" stroke-width="1.5"></path><path d="M947.69 -56.48L947.69 -56.48" stroke="rgba(234, 162, 33, 0.26)" stroke-width="1.5"></path><path d="M947.69 -56.48L953.75 87.39" stroke="rgba(234, 162, 33, 0.26)" stroke-width="1.5"></path><path d="M947.69 -56.48L1121.22 -74.4" stroke="rgba(234, 162, 33, 0.26)" stroke-width="1.5"></path><path d="M947.69 -56.48L835.89 103.07" stroke="rgba(234, 162, 33, 0.26)" stroke-width="1.5"></path><path d="M947.69 -56.48L1105.15 63.86" stroke="rgba(234, 162, 33, 0.26)" stroke-width="1.5"></path><path d="M947.69 -56.48L959.93 228.98" stroke="rgba(234, 162, 33, 0.26)" stroke-width="1.5"></path><path d="M953.75 87.39L953.75 87.39" stroke="rgba(234, 162, 33, 0.26)" stroke-width="1.5"></path><path d="M953.75 87.39L959.93 228.98" stroke="rgba(234, 162, 33, 0.26)" stroke-width="1.5"></path><path d="M953.75 87.39L1105.15 63.86" stroke="rgba(234, 162, 33, 0.26)" stroke-width="1.5"></path><path d="M953.75 87.39L1094.79 218.1" stroke="rgba(234, 162, 33, 0.26)" stroke-width="1.5"></path><path d="M953.75 87.39L816.23 242.86" stroke="rgba(234, 162, 33, 0.26)" stroke-width="1.5"></path><path d="M959.93 228.98L959.93 228.98" stroke="rgba(234, 162, 33, 0.26)" stroke-width="1.5"></path><path d="M959.93 228.98L970.47 362.51" stroke="rgba(234, 162, 33, 0.26)" stroke-width="1.5"></path><path d="M959.93 228.98L1094.79 218.1" stroke="rgba(234, 162, 33, 0.26)" stroke-width="1.5"></path><path d="M970.47 362.51L970.47 362.51" stroke="rgba(234, 162, 33, 0.26)" stroke-width="1.5"></path><path d="M970.47 362.51L1094.79 218.1" stroke="rgba(234, 162, 33, 0.26)" stroke-width="1.5"></path><path d="M970.47 362.51L816.23 242.86" stroke="rgba(234, 162, 33, 0.26)" stroke-width="1.5"></path><path d="M970.47 362.51L1159.87 555.54" stroke="rgba(234, 162, 33, 0.26)" stroke-width="1.5"></path><path d="M947.79 656.07L947.79 656.07" stroke="rgba(234, 162, 33, 0.26)" stroke-width="1.5"></path><path d="M947.79 656.07L789.91 677.73" stroke="rgba(234, 162, 33, 0.26)" stroke-width="1.5"></path><path d="M947.79 656.07L1109.32 656.28" stroke="rgba(234, 162, 33, 0.26)" stroke-width="1.5"></path><path d="M1121.22 -74.4L1121.22 -74.4" stroke="rgba(234, 162, 33, 0.26)" stroke-width="1.5"></path><path d="M1121.22 -74.4L1250.87 -94.1" stroke="rgba(234, 162, 33, 0.26)" stroke-width="1.5"></path><path d="M1121.22 -74.4L1105.15 63.86" stroke="rgba(234, 162, 33, 0.26)" stroke-width="1.5"></path><path d="M1121.22 -74.4L953.75 87.39" stroke="rgba(234, 162, 33, 0.26)" stroke-width="1.5"></path><path d="M1121.22 -74.4L1390.01 39.83" stroke="rgba(234, 162, 33, 0.26)" stroke-width="1.5"></path><path d="M1121.22 -74.4L1094.79 218.1" stroke="rgba(234, 162, 33, 0.26)" stroke-width="1.5"></path><path d="M1105.15 63.86L1105.15 63.86" stroke="rgba(234, 162, 33, 0.26)" stroke-width="1.5"></path><path d="M1105.15 63.86L1094.79 218.1" stroke="rgba(234, 162, 33, 0.26)" stroke-width="1.5"></path><path d="M1105.15 63.86L1251.84 201.91" stroke="rgba(234, 162, 33, 0.26)" stroke-width="1.5"></path><path d="M1105.15 63.86L1250.87 -94.1" stroke="rgba(234, 162, 33, 0.26)" stroke-width="1.5"></path><path d="M1094.79 218.1L1094.79 218.1" stroke="rgba(234, 162, 33, 0.26)" stroke-width="1.5"></path><path d="M1094.79 218.1L1251.84 201.91" stroke="rgba(234, 162, 33, 0.26)" stroke-width="1.5"></path><path d="M1159.87 555.54L1159.87 555.54" stroke="rgba(234, 162, 33, 0.26)" stroke-width="1.5"></path><path d="M1159.87 555.54L1109.32 656.28" stroke="rgba(234, 162, 33, 0.26)" stroke-width="1.5"></path><path d="M1159.87 555.54L1284.07 498.98" stroke="rgba(234, 162, 33, 0.26)" stroke-width="1.5"></path><path d="M1159.87 555.54L1244.58 667.09" stroke="rgba(234, 162, 33, 0.26)" stroke-width="1.5"></path><path d="M1109.32 656.28L1109.32 656.28" stroke="rgba(234, 162, 33, 0.26)" stroke-width="1.5"></path><path d="M1109.32 656.28L1244.58 667.09" stroke="rgba(234, 162, 33, 0.26)" stroke-width="1.5"></path><path d="M1109.32 656.28L1284.07 498.98" stroke="rgba(234, 162, 33, 0.26)" stroke-width="1.5"></path><path d="M1250.87 -94.1L1250.87 -94.1" stroke="rgba(234, 162, 33, 0.26)" stroke-width="1.5"></path><path d="M1250.87 -94.1L1390.01 39.83" stroke="rgba(234, 162, 33, 0.26)" stroke-width="1.5"></path><path d="M1251.84 201.91L1251.84 201.91" stroke="rgba(234, 162, 33, 0.26)" stroke-width="1.5"></path><path d="M1251.84 201.91L1405.3 189.39" stroke="rgba(234, 162, 33, 0.26)" stroke-width="1.5"></path><path d="M1251.84 201.91L1247.86 370.06" stroke="rgba(234, 162, 33, 0.26)" stroke-width="1.5"></path><path d="M1251.84 201.91L1390.01 39.83" stroke="rgba(234, 162, 33, 0.26)" stroke-width="1.5"></path><path d="M1251.84 201.91L1388.67 403.4" stroke="rgba(234, 162, 33, 0.26)" stroke-width="1.5"></path><path d="M1247.86 370.06L1247.86 370.06" stroke="rgba(234, 162, 33, 0.26)" stroke-width="1.5"></path><path d="M1247.86 370.06L1284.07 498.98" stroke="rgba(234, 162, 33, 0.26)" stroke-width="1.5"></path><path d="M1247.86 370.06L1388.67 403.4" stroke="rgba(234, 162, 33, 0.26)" stroke-width="1.5"></path><path d="M1247.86 370.06L1159.87 555.54" stroke="rgba(234, 162, 33, 0.26)" stroke-width="1.5"></path><path d="M1247.86 370.06L1411.63 494.08" stroke="rgba(234, 162, 33, 0.26)" stroke-width="1.5"></path><path d="M1247.86 370.06L1094.79 218.1" stroke="rgba(234, 162, 33, 0.26)" stroke-width="1.5"></path><path d="M1284.07 498.98L1284.07 498.98" stroke="rgba(234, 162, 33, 0.26)" stroke-width="1.5"></path><path d="M1284.07 498.98L1411.63 494.08" stroke="rgba(234, 162, 33, 0.26)" stroke-width="1.5"></path><path d="M1284.07 498.98L1388.67 403.4" stroke="rgba(234, 162, 33, 0.26)" stroke-width="1.5"></path><path d="M1284.07 498.98L1244.58 667.09" stroke="rgba(234, 162, 33, 0.26)" stroke-width="1.5"></path><path d="M1284.07 498.98L1439.81 658.66" stroke="rgba(234, 162, 33, 0.26)" stroke-width="1.5"></path><path d="M1244.58 667.09L1244.58 667.09" stroke="rgba(234, 162, 33, 0.26)" stroke-width="1.5"></path><path d="M1244.58 667.09L1439.81 658.66" stroke="rgba(234, 162, 33, 0.26)" stroke-width="1.5"></path><path d="M1244.58 667.09L1411.63 494.08" stroke="rgba(234, 162, 33, 0.26)" stroke-width="1.5"></path><path d="M1390.01 39.83L1390.01 39.83" stroke="rgba(234, 162, 33, 0.26)" stroke-width="1.5"></path><path d="M1390.01 39.83L1405.3 189.39" stroke="rgba(234, 162, 33, 0.26)" stroke-width="1.5"></path><path d="M1390.01 39.83L1572 99.32" stroke="rgba(234, 162, 33, 0.26)" stroke-width="1.5"></path><path d="M1405.3 189.39L1405.3 189.39" stroke="rgba(234, 162, 33, 0.26)" stroke-width="1.5"></path><path d="M1405.3 189.39L1562.03 213.57" stroke="rgba(234, 162, 33, 0.26)" stroke-width="1.5"></path><path d="M1405.3 189.39L1572 99.32" stroke="rgba(234, 162, 33, 0.26)" stroke-width="1.5"></path><path d="M1405.3 189.39L1388.67 403.4" stroke="rgba(234, 162, 33, 0.26)" stroke-width="1.5"></path><path d="M1405.3 189.39L1567.88 356.1" stroke="rgba(234, 162, 33, 0.26)" stroke-width="1.5"></path><path d="M1388.67 403.4L1388.67 403.4" stroke="rgba(234, 162, 33, 0.26)" stroke-width="1.5"></path><path d="M1388.67 403.4L1411.63 494.08" stroke="rgba(234, 162, 33, 0.26)" stroke-width="1.5"></path><path d="M1388.67 403.4L1567.88 356.1" stroke="rgba(234, 162, 33, 0.26)" stroke-width="1.5"></path><path d="M1411.63 494.08L1411.63 494.08" stroke="rgba(234, 162, 33, 0.26)" stroke-width="1.5"></path><path d="M1439.81 658.66L1439.81 658.66" stroke="rgba(234, 162, 33, 0.26)" stroke-width="1.5"></path><path d="M1439.81 658.66L1567.87 640.24" stroke="rgba(234, 162, 33, 0.26)" stroke-width="1.5"></path><path d="M1439.81 658.66L1411.63 494.08" stroke="rgba(234, 162, 33, 0.26)" stroke-width="1.5"></path><path d="M1547.46 -99.07L1547.46 -99.07" stroke="rgba(234, 162, 33, 0.26)" stroke-width="1.5"></path><path d="M1547.46 -99.07L1572 99.32" stroke="rgba(234, 162, 33, 0.26)" stroke-width="1.5"></path><path d="M1547.46 -99.07L1390.01 39.83" stroke="rgba(234, 162, 33, 0.26)" stroke-width="1.5"></path><path d="M1572 99.32L1572 99.32" stroke="rgba(234, 162, 33, 0.26)" stroke-width="1.5"></path><path d="M1572 99.32L1562.03 213.57" stroke="rgba(234, 162, 33, 0.26)" stroke-width="1.5"></path><path d="M1572 99.32L1567.88 356.1" stroke="rgba(234, 162, 33, 0.26)" stroke-width="1.5"></path><path d="M1572 99.32L1251.84 201.91" stroke="rgba(234, 162, 33, 0.26)" stroke-width="1.5"></path><path d="M1562.03 213.57L1562.03 213.57" stroke="rgba(234, 162, 33, 0.26)" stroke-width="1.5"></path><path d="M1562.03 213.57L1567.88 356.1" stroke="rgba(234, 162, 33, 0.26)" stroke-width="1.5"></path><path d="M1567.88 356.1L1567.88 356.1" stroke="rgba(234, 162, 33, 0.26)" stroke-width="1.5"></path><path d="M1567.88 356.1L1611.4 506.44" stroke="rgba(234, 162, 33, 0.26)" stroke-width="1.5"></path><path d="M1567.88 356.1L1411.63 494.08" stroke="rgba(234, 162, 33, 0.26)" stroke-width="1.5"></path><path d="M1611.4 506.44L1611.4 506.44" stroke="rgba(234, 162, 33, 0.26)" stroke-width="1.5"></path><path d="M1611.4 506.44L1567.87 640.24" stroke="rgba(234, 162, 33, 0.26)" stroke-width="1.5"></path><path d="M1611.4 506.44L1411.63 494.08" stroke="rgba(234, 162, 33, 0.26)" stroke-width="1.5"></path><path d="M1611.4 506.44L1439.81 658.66" stroke="rgba(234, 162, 33, 0.26)" stroke-width="1.5"></path><path d="M1611.4 506.44L1388.67 403.4" stroke="rgba(234, 162, 33, 0.26)" stroke-width="1.5"></path><path d="M1567.87 640.24L1567.87 640.24" stroke="rgba(234, 162, 33, 0.26)" stroke-width="1.5"></path><path d="M1567.87 640.24L1411.63 494.08" stroke="rgba(234, 162, 33, 0.26)" stroke-width="1.5"></path><circle r="5" cx="-89.93" cy="403.91" fill="rgba(234, 162, 33, 0.26)"></circle><circle r="5" cx="-57.21" cy="520.49" fill="rgba(234, 162, 33, 0.26)"></circle><circle r="5" cx="-65.17" cy="690.45" fill="rgba(234, 162, 33, 0.26)"></circle><circle r="5" cx="67.99" cy="348.49" fill="rgba(234, 162, 33, 0.26)"></circle><circle r="5" cx="109.47" cy="553.31" fill="rgba(234, 162, 33, 0.26)"></circle><circle r="5" cx="94.2" cy="651.23" fill="rgba(234, 162, 33, 0.26)"></circle><circle r="5" cx="218.79" cy="521.84" fill="rgba(234, 162, 33, 0.26)"></circle><circle r="5" cx="197.03" cy="675.33" fill="rgba(234, 162, 33, 0.26)"></circle><circle r="5" cx="392.2" cy="348.21" fill="rgba(234, 162, 33, 0.26)"></circle><circle r="5" cx="349.46" cy="531.56" fill="rgba(234, 162, 33, 0.26)"></circle><circle r="5" cx="359.93" cy="639.4" fill="rgba(234, 162, 33, 0.26)"></circle><circle r="5" cx="553.82" cy="534.98" fill="rgba(234, 162, 33, 0.26)"></circle><circle r="5" cx="559.76" cy="662.45" fill="rgba(234, 162, 33, 0.26)"></circle><circle r="5" cx="658.15" cy="246.58" fill="rgba(234, 162, 33, 0.26)"></circle><circle r="5" cx="700.33" cy="549.05" fill="rgba(234, 162, 33, 0.26)"></circle><circle r="5" cx="673.95" cy="703.95" fill="rgba(234, 162, 33, 0.26)"></circle><circle r="5" cx="835.89" cy="103.07" fill="rgba(234, 162, 33, 0.26)"></circle><circle r="5" cx="816.23" cy="242.86" fill="rgba(234, 162, 33, 0.26)"></circle><circle r="5" cx="835.47" cy="358.02" fill="rgba(234, 162, 33, 0.26)"></circle><circle r="5" cx="788.29" cy="487.61" fill="rgba(234, 162, 33, 0.26)"></circle><circle r="5" cx="789.91" cy="677.73" fill="rgba(234, 162, 33, 0.26)"></circle><circle r="5" cx="947.69" cy="-56.48" fill="rgba(234, 162, 33, 0.26)"></circle><circle r="5" cx="953.75" cy="87.39" fill="rgba(234, 162, 33, 0.26)"></circle><circle r="5" cx="959.93" cy="228.98" fill="rgba(234, 162, 33, 0.26)"></circle><circle r="5" cx="970.47" cy="362.51" fill="rgba(234, 162, 33, 0.26)"></circle><circle r="5" cx="947.79" cy="656.07" fill="rgba(234, 162, 33, 0.26)"></circle><circle r="5" cx="1121.22" cy="-74.4" fill="rgba(234, 162, 33, 0.26)"></circle><circle r="5" cx="1105.15" cy="63.86" fill="rgba(234, 162, 33, 0.26)"></circle><circle r="5" cx="1094.79" cy="218.1" fill="rgba(234, 162, 33, 0.26)"></circle><circle r="5" cx="1159.87" cy="555.54" fill="rgba(234, 162, 33, 0.26)"></circle><circle r="5" cx="1109.32" cy="656.28" fill="rgba(234, 162, 33, 0.26)"></circle><circle r="5" cx="1250.87" cy="-94.1" fill="rgba(234, 162, 33, 0.26)"></circle><circle r="5" cx="1251.84" cy="201.91" fill="rgba(234, 162, 33, 0.26)"></circle><circle r="5" cx="1247.86" cy="370.06" fill="rgba(234, 162, 33, 0.26)"></circle><circle r="5" cx="1284.07" cy="498.98" fill="rgba(234, 162, 33, 0.26)"></circle><circle r="5" cx="1244.58" cy="667.09" fill="rgba(234, 162, 33, 0.26)"></circle><circle r="5" cx="1390.01" cy="39.83" fill="rgba(234, 162, 33, 0.26)"></circle><circle r="5" cx="1405.3" cy="189.39" fill="rgba(234, 162, 33, 0.26)"></circle><circle r="5" cx="1388.67" cy="403.4" fill="rgba(234, 162, 33, 0.26)"></circle><circle r="5" cx="1411.63" cy="494.08" fill="rgba(234, 162, 33, 0.26)"></circle><circle r="5" cx="1439.81" cy="658.66" fill="rgba(234, 162, 33, 0.26)"></circle><circle r="5" cx="1547.46" cy="-99.07" fill="rgba(234, 162, 33, 0.26)"></circle><circle r="5" cx="1572" cy="99.32" fill="rgba(234, 162, 33, 0.26)"></circle><circle r="5" cx="1562.03" cy="213.57" fill="rgba(234, 162, 33, 0.26)"></circle><circle r="5" cx="1567.88" cy="356.1" fill="rgba(234, 162, 33, 0.26)"></circle><circle r="5" cx="1611.4" cy="506.44" fill="rgba(234, 162, 33, 0.26)"></circle><circle r="5" cx="1567.87" cy="640.24" fill="rgba(234, 162, 33, 0.26)"></circle><path d="M-46.74 518.93L-46.74 518.93" stroke="hsl(38.5, 82.7%, 68.1%)" stroke-width="1.5"></path><path d="M-46.74 518.93L108.24 502.69" stroke="hsl(38.5, 82.7%, 68.1%)" stroke-width="1.5"></path><path d="M-46.74 518.93L43.14 670.26" stroke="hsl(38.5, 82.7%, 68.1%)" stroke-width="1.5"></path><path d="M350.85 538.24L350.85 538.24" stroke="hsl(38.5, 82.7%, 68.1%)" stroke-width="1.5"></path><path d="M350.85 538.24L261.13 522.25" stroke="hsl(38.5, 82.7%, 68.1%)" stroke-width="1.5"></path><path d="M350.85 538.24L392.3 694.2" stroke="hsl(38.5, 82.7%, 68.1%)" stroke-width="1.5"></path><path d="M350.85 538.24L526.47 515.94" stroke="hsl(38.5, 82.7%, 68.1%)" stroke-width="1.5"></path><path d="M350.85 538.24L246.4 684.17" stroke="hsl(38.5, 82.7%, 68.1%)" stroke-width="1.5"></path><path d="M841.56 375.68L841.56 375.68" stroke="hsl(38.5, 82.7%, 68.1%)" stroke-width="1.5"></path><path d="M841.56 375.68L818.46 490.74" stroke="hsl(38.5, 82.7%, 68.1%)" stroke-width="1.5"></path><path d="M841.56 375.68L999.18 407.8" stroke="hsl(38.5, 82.7%, 68.1%)" stroke-width="1.5"></path><path d="M1099.46 371.55L1099.46 371.55" stroke="hsl(38.5, 82.7%, 68.1%)" stroke-width="1.5"></path><path d="M1099.46 371.55L999.18 407.8" stroke="hsl(38.5, 82.7%, 68.1%)" stroke-width="1.5"></path><path d="M1099.46 371.55L1142.41 490.22" stroke="hsl(38.5, 82.7%, 68.1%)" stroke-width="1.5"></path><path d="M1099.46 371.55L1263.62 391.91" stroke="hsl(38.5, 82.7%, 68.1%)" stroke-width="1.5"></path><path d="M1099.46 371.55L1237.98 518.12" stroke="hsl(38.5, 82.7%, 68.1%)" stroke-width="1.5"></path><path d="M1099.46 371.55L1298.48 207.85" stroke="hsl(38.5, 82.7%, 68.1%)" stroke-width="1.5"></path><path d="M1099.46 371.55L841.56 375.68" stroke="hsl(38.5, 82.7%, 68.1%)" stroke-width="1.5"></path><path d="M1307.44 665.37L1307.44 665.37" stroke="hsl(38.5, 82.7%, 68.1%)" stroke-width="1.5"></path><path d="M1307.44 665.37L1412.19 676.59" stroke="hsl(38.5, 82.7%, 68.1%)" stroke-width="1.5"></path><path d="M1307.44 665.37L1151.38 689.43" stroke="hsl(38.5, 82.7%, 68.1%)" stroke-width="1.5"></path><path d="M1307.44 665.37L1237.98 518.12" stroke="hsl(38.5, 82.7%, 68.1%)" stroke-width="1.5"></path><path d="M1307.44 665.37L1439.2 506.34" stroke="hsl(38.5, 82.7%, 68.1%)" stroke-width="1.5"></path><path d="M1307.44 665.37L1142.41 490.22" stroke="hsl(38.5, 82.7%, 68.1%)" stroke-width="1.5"></path><path d="M1307.44 665.37L1549.69 711.21" stroke="hsl(38.5, 82.7%, 68.1%)" stroke-width="1.5"></path><path d="M1412.19 676.59L1412.19 676.59" stroke="hsl(38.5, 82.7%, 68.1%)" stroke-width="1.5"></path><path d="M1412.19 676.59L1549.69 711.21" stroke="hsl(38.5, 82.7%, 68.1%)" stroke-width="1.5"></path><path d="M1412.19 676.59L1439.2 506.34" stroke="hsl(38.5, 82.7%, 68.1%)" stroke-width="1.5"></path><path d="M1412.19 676.59L1237.98 518.12" stroke="hsl(38.5, 82.7%, 68.1%)" stroke-width="1.5"></path><path d="M1412.19 676.59L1591.33 515.27" stroke="hsl(38.5, 82.7%, 68.1%)" stroke-width="1.5"></path><path d="M1590.61 390.39L1590.61 390.39" stroke="hsl(38.5, 82.7%, 68.1%)" stroke-width="1.5"></path><path d="M1590.61 390.39L1591.33 515.27" stroke="hsl(38.5, 82.7%, 68.1%)" stroke-width="1.5"></path><path d="M1590.61 390.39L1590.36 242.94" stroke="hsl(38.5, 82.7%, 68.1%)" stroke-width="1.5"></path><path d="M1590.61 390.39L1408.57 352.24" stroke="hsl(38.5, 82.7%, 68.1%)" stroke-width="1.5"></path><path d="M1590.61 390.39L1439.2 506.34" stroke="hsl(38.5, 82.7%, 68.1%)" stroke-width="1.5"></path><path d="M1591.33 515.27L1591.33 515.27" stroke="hsl(38.5, 82.7%, 68.1%)" stroke-width="1.5"></path><path d="M1591.33 515.27L1439.2 506.34" stroke="hsl(38.5, 82.7%, 68.1%)" stroke-width="1.5"></path><path d="M1591.33 515.27L1549.69 711.21" stroke="hsl(38.5, 82.7%, 68.1%)" stroke-width="1.5"></path><path d="M-48.89 701.79L-48.89 701.79" stroke="hsl(38.5, 82.7%, 68.1%)" stroke-width="1.5"></path><path d="M-48.89 701.79L43.14 670.26" stroke="hsl(38.5, 82.7%, 68.1%)" stroke-width="1.5"></path><path d="M-48.89 701.79L-46.74 518.93" stroke="hsl(38.5, 82.7%, 68.1%)" stroke-width="1.5"></path><path d="M-48.89 701.79L108.24 502.69" stroke="hsl(38.5, 82.7%, 68.1%)" stroke-width="1.5"></path><path d="M-48.89 701.79L246.4 684.17" stroke="hsl(38.5, 82.7%, 68.1%)" stroke-width="1.5"></path><path d="M108.24 502.69L108.24 502.69" stroke="hsl(38.5, 82.7%, 68.1%)" stroke-width="1.5"></path><path d="M108.24 502.69L261.13 522.25" stroke="hsl(38.5, 82.7%, 68.1%)" stroke-width="1.5"></path><path d="M108.24 502.69L43.14 670.26" stroke="hsl(38.5, 82.7%, 68.1%)" stroke-width="1.5"></path><path d="M108.24 502.69L246.4 684.17" stroke="hsl(38.5, 82.7%, 68.1%)" stroke-width="1.5"></path><path d="M43.14 670.26L43.14 670.26" stroke="hsl(38.5, 82.7%, 68.1%)" stroke-width="1.5"></path><path d="M43.14 670.26L246.4 684.17" stroke="hsl(38.5, 82.7%, 68.1%)" stroke-width="1.5"></path><path d="M43.14 670.26L261.13 522.25" stroke="hsl(38.5, 82.7%, 68.1%)" stroke-width="1.5"></path><path d="M43.14 670.26L350.85 538.24" stroke="hsl(38.5, 82.7%, 68.1%)" stroke-width="1.5"></path><path d="M261.13 522.25L261.13 522.25" stroke="hsl(38.5, 82.7%, 68.1%)" stroke-width="1.5"></path><path d="M246.4 684.17L246.4 684.17" stroke="hsl(38.5, 82.7%, 68.1%)" stroke-width="1.5"></path><path d="M246.4 684.17L392.3 694.2" stroke="hsl(38.5, 82.7%, 68.1%)" stroke-width="1.5"></path><path d="M246.4 684.17L261.13 522.25" stroke="hsl(38.5, 82.7%, 68.1%)" stroke-width="1.5"></path><path d="M392.3 694.2L392.3 694.2" stroke="hsl(38.5, 82.7%, 68.1%)" stroke-width="1.5"></path><path d="M392.3 694.2L261.13 522.25" stroke="hsl(38.5, 82.7%, 68.1%)" stroke-width="1.5"></path><path d="M392.3 694.2L526.47 515.94" stroke="hsl(38.5, 82.7%, 68.1%)" stroke-width="1.5"></path><path d="M526.47 515.94L526.47 515.94" stroke="hsl(38.5, 82.7%, 68.1%)" stroke-width="1.5"></path><path d="M526.47 515.94L686.12 539.72" stroke="hsl(38.5, 82.7%, 68.1%)" stroke-width="1.5"></path><path d="M686.12 539.72L686.12 539.72" stroke="hsl(38.5, 82.7%, 68.1%)" stroke-width="1.5"></path><path d="M686.12 539.72L818.46 490.74" stroke="hsl(38.5, 82.7%, 68.1%)" stroke-width="1.5"></path><path d="M686.12 539.72L638.3 688.66" stroke="hsl(38.5, 82.7%, 68.1%)" stroke-width="1.5"></path><path d="M686.12 539.72L819.58 653.19" stroke="hsl(38.5, 82.7%, 68.1%)" stroke-width="1.5"></path><path d="M686.12 539.72L841.56 375.68" stroke="hsl(38.5, 82.7%, 68.1%)" stroke-width="1.5"></path><path d="M686.12 539.72L950.51 674.2" stroke="hsl(38.5, 82.7%, 68.1%)" stroke-width="1.5"></path><path d="M638.3 688.66L638.3 688.66" stroke="hsl(38.5, 82.7%, 68.1%)" stroke-width="1.5"></path><path d="M638.3 688.66L819.58 653.19" stroke="hsl(38.5, 82.7%, 68.1%)" stroke-width="1.5"></path><path d="M818.46 490.74L818.46 490.74" stroke="hsl(38.5, 82.7%, 68.1%)" stroke-width="1.5"></path><path d="M818.46 490.74L819.58 653.19" stroke="hsl(38.5, 82.7%, 68.1%)" stroke-width="1.5"></path><path d="M818.46 490.74L999.18 407.8" stroke="hsl(38.5, 82.7%, 68.1%)" stroke-width="1.5"></path><path d="M818.46 490.74L950.51 674.2" stroke="hsl(38.5, 82.7%, 68.1%)" stroke-width="1.5"></path><path d="M819.58 653.19L819.58 653.19" stroke="hsl(38.5, 82.7%, 68.1%)" stroke-width="1.5"></path><path d="M819.58 653.19L950.51 674.2" stroke="hsl(38.5, 82.7%, 68.1%)" stroke-width="1.5"></path><path d="M999.18 407.8L999.18 407.8" stroke="hsl(38.5, 82.7%, 68.1%)" stroke-width="1.5"></path><path d="M999.18 407.8L1142.41 490.22" stroke="hsl(38.5, 82.7%, 68.1%)" stroke-width="1.5"></path><path d="M950.51 674.2L950.51 674.2" stroke="hsl(38.5, 82.7%, 68.1%)" stroke-width="1.5"></path><path d="M950.51 674.2L1151.38 689.43" stroke="hsl(38.5, 82.7%, 68.1%)" stroke-width="1.5"></path><path d="M1141.24 84.16L1141.24 84.16" stroke="hsl(38.5, 82.7%, 68.1%)" stroke-width="1.5"></path><path d="M1141.24 84.16L1255.21 92.18" stroke="hsl(38.5, 82.7%, 68.1%)" stroke-width="1.5"></path><path d="M1141.24 84.16L1298.48 207.85" stroke="hsl(38.5, 82.7%, 68.1%)" stroke-width="1.5"></path><path d="M1141.24 84.16L1302.92 -95.83" stroke="hsl(38.5, 82.7%, 68.1%)" stroke-width="1.5"></path><path d="M1141.24 84.16L1099.46 371.55" stroke="hsl(38.5, 82.7%, 68.1%)" stroke-width="1.5"></path><path d="M1141.24 84.16L1439.85 52.2" stroke="hsl(38.5, 82.7%, 68.1%)" stroke-width="1.5"></path><path d="M1142.41 490.22L1142.41 490.22" stroke="hsl(38.5, 82.7%, 68.1%)" stroke-width="1.5"></path><path d="M1142.41 490.22L1237.98 518.12" stroke="hsl(38.5, 82.7%, 68.1%)" stroke-width="1.5"></path><path d="M1151.38 689.43L1151.38 689.43" stroke="hsl(38.5, 82.7%, 68.1%)" stroke-width="1.5"></path><path d="M1151.38 689.43L1237.98 518.12" stroke="hsl(38.5, 82.7%, 68.1%)" stroke-width="1.5"></path><path d="M1151.38 689.43L1142.41 490.22" stroke="hsl(38.5, 82.7%, 68.1%)" stroke-width="1.5"></path><path d="M1302.92 -95.83L1302.92 -95.83" stroke="hsl(38.5, 82.7%, 68.1%)" stroke-width="1.5"></path><path d="M1302.92 -95.83L1430.44 -63.58" stroke="hsl(38.5, 82.7%, 68.1%)" stroke-width="1.5"></path><path d="M1302.92 -95.83L1255.21 92.18" stroke="hsl(38.5, 82.7%, 68.1%)" stroke-width="1.5"></path><path d="M1302.92 -95.83L1439.85 52.2" stroke="hsl(38.5, 82.7%, 68.1%)" stroke-width="1.5"></path><path d="M1302.92 -95.83L1580.76 -78.03" stroke="hsl(38.5, 82.7%, 68.1%)" stroke-width="1.5"></path><path d="M1255.21 92.18L1255.21 92.18" stroke="hsl(38.5, 82.7%, 68.1%)" stroke-width="1.5"></path><path d="M1255.21 92.18L1298.48 207.85" stroke="hsl(38.5, 82.7%, 68.1%)" stroke-width="1.5"></path><path d="M1255.21 92.18L1439.85 52.2" stroke="hsl(38.5, 82.7%, 68.1%)" stroke-width="1.5"></path><path d="M1298.48 207.85L1298.48 207.85" stroke="hsl(38.5, 82.7%, 68.1%)" stroke-width="1.5"></path><path d="M1298.48 207.85L1411.52 232.91" stroke="hsl(38.5, 82.7%, 68.1%)" stroke-width="1.5"></path><path d="M1263.62 391.91L1263.62 391.91" stroke="hsl(38.5, 82.7%, 68.1%)" stroke-width="1.5"></path><path d="M1263.62 391.91L1237.98 518.12" stroke="hsl(38.5, 82.7%, 68.1%)" stroke-width="1.5"></path><path d="M1263.62 391.91L1408.57 352.24" stroke="hsl(38.5, 82.7%, 68.1%)" stroke-width="1.5"></path><path d="M1263.62 391.91L1142.41 490.22" stroke="hsl(38.5, 82.7%, 68.1%)" stroke-width="1.5"></path><path d="M1237.98 518.12L1237.98 518.12" stroke="hsl(38.5, 82.7%, 68.1%)" stroke-width="1.5"></path><path d="M1430.44 -63.58L1430.44 -63.58" stroke="hsl(38.5, 82.7%, 68.1%)" stroke-width="1.5"></path><path d="M1430.44 -63.58L1439.85 52.2" stroke="hsl(38.5, 82.7%, 68.1%)" stroke-width="1.5"></path><path d="M1439.85 52.2L1439.85 52.2" stroke="hsl(38.5, 82.7%, 68.1%)" stroke-width="1.5"></path><path d="M1439.85 52.2L1582.65 71.54" stroke="hsl(38.5, 82.7%, 68.1%)" stroke-width="1.5"></path><path d="M1439.85 52.2L1411.52 232.91" stroke="hsl(38.5, 82.7%, 68.1%)" stroke-width="1.5"></path><path d="M1411.52 232.91L1411.52 232.91" stroke="hsl(38.5, 82.7%, 68.1%)" stroke-width="1.5"></path><path d="M1411.52 232.91L1408.57 352.24" stroke="hsl(38.5, 82.7%, 68.1%)" stroke-width="1.5"></path><path d="M1411.52 232.91L1590.36 242.94" stroke="hsl(38.5, 82.7%, 68.1%)" stroke-width="1.5"></path><path d="M1408.57 352.24L1408.57 352.24" stroke="hsl(38.5, 82.7%, 68.1%)" stroke-width="1.5"></path><path d="M1439.2 506.34L1439.2 506.34" stroke="hsl(38.5, 82.7%, 68.1%)" stroke-width="1.5"></path><path d="M1439.2 506.34L1408.57 352.24" stroke="hsl(38.5, 82.7%, 68.1%)" stroke-width="1.5"></path><path d="M1580.76 -78.03L1580.76 -78.03" stroke="hsl(38.5, 82.7%, 68.1%)" stroke-width="1.5"></path><path d="M1580.76 -78.03L1582.65 71.54" stroke="hsl(38.5, 82.7%, 68.1%)" stroke-width="1.5"></path><path d="M1580.76 -78.03L1430.44 -63.58" stroke="hsl(38.5, 82.7%, 68.1%)" stroke-width="1.5"></path><path d="M1580.76 -78.03L1439.85 52.2" stroke="hsl(38.5, 82.7%, 68.1%)" stroke-width="1.5"></path><path d="M1582.65 71.54L1582.65 71.54" stroke="hsl(38.5, 82.7%, 68.1%)" stroke-width="1.5"></path><path d="M1582.65 71.54L1590.36 242.94" stroke="hsl(38.5, 82.7%, 68.1%)" stroke-width="1.5"></path><path d="M1590.36 242.94L1590.36 242.94" stroke="hsl(38.5, 82.7%, 68.1%)" stroke-width="1.5"></path><path d="M1549.69 711.21L1549.69 711.21" stroke="hsl(38.5, 82.7%, 68.1%)" stroke-width="1.5"></path><path d="M1549.69 711.21L1439.2 506.34" stroke="hsl(38.5, 82.7%, 68.1%)" stroke-width="1.5"></path><path d="M1549.69 711.21L1590.61 390.39" stroke="hsl(38.5, 82.7%, 68.1%)" stroke-width="1.5"></path><path d="M1549.69 711.21L1237.98 518.12" stroke="hsl(38.5, 82.7%, 68.1%)" stroke-width="1.5"></path><circle r="25" cx="-46.74" cy="518.93" fill="url(&quot;#SvgjsRadialGradient1009&quot;)"></circle><circle r="25" cx="350.85" cy="538.24" fill="url(&quot;#SvgjsRadialGradient1009&quot;)"></circle><circle r="25" cx="841.56" cy="375.68" fill="url(&quot;#SvgjsRadialGradient1009&quot;)"></circle><circle r="25" cx="1099.46" cy="371.55" fill="url(&quot;#SvgjsRadialGradient1009&quot;)"></circle><circle r="25" cx="1307.44" cy="665.37" fill="url(&quot;#SvgjsRadialGradient1009&quot;)"></circle><circle r="25" cx="1412.19" cy="676.59" fill="url(&quot;#SvgjsRadialGradient1009&quot;)"></circle><circle r="25" cx="1590.61" cy="390.39" fill="url(&quot;#SvgjsRadialGradient1009&quot;)"></circle><circle r="25" cx="1591.33" cy="515.27" fill="url(&quot;#SvgjsRadialGradient1009&quot;)"></circle><circle r="5" cx="-48.89" cy="701.79" fill="#f5d190"></circle><circle r="5" cx="108.24" cy="502.69" fill="#f5d190"></circle><circle r="5" cx="43.14" cy="670.26" fill="#f5d190"></circle><circle r="5" cx="261.13" cy="522.25" fill="#f5d190"></circle><circle r="5" cx="246.4" cy="684.17" fill="#f5d190"></circle><circle r="5" cx="392.3" cy="694.2" fill="#f5d190"></circle><circle r="5" cx="526.47" cy="515.94" fill="#f5d190"></circle><circle r="5" cx="686.12" cy="539.72" fill="#f5d190"></circle><circle r="5" cx="638.3" cy="688.66" fill="#f5d190"></circle><circle r="5" cx="818.46" cy="490.74" fill="#f5d190"></circle><circle r="5" cx="819.58" cy="653.19" fill="#f5d190"></circle><circle r="5" cx="999.18" cy="407.8" fill="#f5d190"></circle><circle r="5" cx="950.51" cy="674.2" fill="#f5d190"></circle><circle r="5" cx="1141.24" cy="84.16" fill="#f5d190"></circle><circle r="5" cx="1142.41" cy="490.22" fill="#f5d190"></circle><circle r="5" cx="1151.38" cy="689.43" fill="#f5d190"></circle><circle r="5" cx="1302.92" cy="-95.83" fill="#f5d190"></circle><circle r="5" cx="1255.21" cy="92.18" fill="#f5d190"></circle><circle r="5" cx="1298.48" cy="207.85" fill="#f5d190"></circle><circle r="5" cx="1263.62" cy="391.91" fill="#f5d190"></circle><circle r="5" cx="1237.98" cy="518.12" fill="#f5d190"></circle><circle r="5" cx="1430.44" cy="-63.58" fill="#f5d190"></circle><circle r="5" cx="1439.85" cy="52.2" fill="#f5d190"></circle><circle r="5" cx="1411.52" cy="232.91" fill="#f5d190"></circle><circle r="5" cx="1408.57" cy="352.24" fill="#f5d190"></circle><circle r="5" cx="1439.2" cy="506.34" fill="#f5d190"></circle><circle r="5" cx="1580.76" cy="-78.03" fill="#f5d190"></circle><circle r="5" cx="1582.65" cy="71.54" fill="#f5d190"></circle><circle r="5" cx="1590.36" cy="242.94" fill="#f5d190"></circle><circle r="5" cx="1549.69" cy="711.21" fill="#f5d190"></circle></g><defs><mask id="SvgjsMask1008"><rect width="1440" height="560" fill="#ffffff"></rect></mask><radialGradient id="SvgjsRadialGradient1009"><stop stop-color="#ffffff" offset="0.1"></stop><stop stop-color="rgba(234, 162, 33, 1)" offset="0.2"></stop><stop stop-color="rgba(234, 162, 33, 0)" offset="1"></stop></radialGradient></defs></svg>